<svg width="370" height="80" viewBox="0 0 370 80" fill="none" xmlns="http://www.w3.org/2000/svg">
<path fill-rule="evenodd" clip-rule="evenodd" d="M3.05176e-05 40.0005C3.05176e-05 20.003 14.4708 3.38534 33.5121 0.0477704C35.4753 -0.296342 37.1832 1.28431 37.1832 3.27745C37.1832 5.02962 35.8493 6.47774 34.1287 6.80933C18.5374 9.81418 6.7606 23.532 6.7606 40.0005C6.7606 56.469 18.5374 70.1868 34.1287 73.1916C35.8493 73.5232 37.1832 74.9714 37.1832 76.7235C37.1832 78.7167 35.4753 80.2973 33.5121 79.9532C14.4708 76.6156 3.05176e-05 59.998 3.05176e-05 40.0005ZM74.3663 40.0005C74.3663 56.469 62.5895 70.1868 46.9982 73.1916C45.2777 73.5232 43.9437 74.9714 43.9437 76.7235C43.9437 78.7167 45.6516 80.2973 47.6148 79.9532C66.6561 76.6156 81.1269 59.998 81.1269 40.0005C81.1269 20.003 66.6561 3.38534 47.6148 0.0477705C45.6516 -0.296342 43.9438 1.28431 43.9438 3.27745C43.9438 5.02962 45.2777 6.47774 46.9982 6.80933C62.5895 9.81418 74.3663 23.532 74.3663 40.0005ZM17.6404 36.6202C19.3269 36.6202 20.736 35.3886 21.2525 33.7832C23.8776 25.6233 31.531 19.7188 40.5635 19.7188C49.596 19.7188 57.2494 25.6233 59.8745 33.7832C60.3909 35.3886 61.8001 36.6202 63.4865 36.6202C65.5629 36.6202 67.1858 34.7897 66.6333 32.7881C63.4771 21.3545 53.0008 12.9582 40.5635 12.9582C28.1261 12.9582 17.6498 21.3545 14.4936 32.7881C13.9411 34.7897 15.564 36.6202 17.6404 36.6202ZM21.2525 46.2178C20.736 44.6124 19.3269 43.3808 17.6404 43.3808C15.564 43.3808 13.9411 45.2113 14.4936 47.2129C17.6498 58.6465 28.1261 67.0428 40.5635 67.0428C53.0008 67.0428 63.4771 58.6465 66.6333 47.2129C67.1858 45.2113 65.5629 43.3808 63.4865 43.3808C61.8001 43.3808 60.3909 44.6124 59.8745 46.2178C57.2494 54.3777 49.596 60.2822 40.5635 60.2822C31.531 60.2822 23.8776 54.3777 21.2525 46.2178ZM40.5635 33.2399C36.8297 33.2399 33.8029 36.2667 33.8029 40.0005C33.8029 43.7342 36.8297 46.7611 40.5635 46.7611C44.2972 46.7611 47.324 43.7342 47.324 40.0005C47.324 36.2667 44.2972 33.2399 40.5635 33.2399ZM27.0423 40.0005C27.0423 32.533 33.0959 26.4793 40.5635 26.4793C48.031 26.4793 54.0846 32.533 54.0846 40.0005C54.0846 47.468 48.031 53.5216 40.5635 53.5216C33.0959 53.5216 27.0423 47.468 27.0423 40.0005Z" fill="#010101"/>
<path d="M101.346 64.4666V10.8748H101.416L130.031 51.4535L125.693 50.474L154.238 10.8748H154.378V64.4666H144.233V33.7528L144.863 39L127.442 63.767H127.302L109.391 39L111.14 34.1726V64.4666H101.346ZM159.082 64.4666L182.31 10.9448H182.87L206.097 64.4666H194.344L179.511 26.8264L186.858 21.7891L169.087 64.4666H159.082ZM174.964 45.8564H190.426L193.994 54.3919H171.815L174.964 45.8564ZM256.911 66.5655L217.871 31.3041L220.88 32.9832L221.09 64.4666H210.805V10.9448H211.225L249.425 46.0663L247.186 45.0868L246.976 12.9737H257.191V66.5655H256.911ZM267.653 64.4666V12.9737H283.045C288.222 12.9737 292.63 13.7433 296.268 15.2825C299.906 16.8217 302.821 18.874 305.013 21.4393C307.252 24.0046 308.885 26.8731 309.911 30.0447C310.937 33.2164 311.45 36.4114 311.45 39.6297C311.45 43.4543 310.75 46.9059 309.351 49.9842C307.998 53.016 306.133 55.6279 303.754 57.8201C301.375 59.9656 298.623 61.6214 295.498 62.7875C292.373 63.9069 289.062 64.4666 285.563 64.4666H267.653ZM277.798 54.6718H283.814C286.38 54.6718 288.712 54.3453 290.811 53.6923C292.91 52.9926 294.705 51.9898 296.198 50.6839C297.737 49.3779 298.903 47.7454 299.696 45.7864C300.536 43.7808 300.955 41.4954 300.955 38.9301C300.955 35.5718 300.396 32.8433 299.276 30.7444C298.203 28.5988 296.851 26.943 295.218 25.777C293.633 24.6109 292 23.818 290.321 23.3982C288.642 22.9318 287.219 22.6986 286.053 22.6986H277.798V54.6718ZM315.681 38.7901C315.681 35.2453 316.358 31.8871 317.71 28.7154C319.063 25.5438 320.929 22.7453 323.307 20.3199C325.733 17.8478 328.531 15.9122 331.703 14.5129C334.875 13.1137 338.28 12.414 341.918 12.414C345.509 12.414 348.891 13.1137 352.062 14.5129C355.234 15.9122 358.033 17.8478 360.458 20.3199C362.93 22.7453 364.842 25.5438 366.195 28.7154C367.594 31.8871 368.294 35.2453 368.294 38.7901C368.294 42.4282 367.594 45.8331 366.195 49.0047C364.842 52.1764 362.93 54.9749 360.458 57.4003C358.033 59.7791 355.234 61.6448 352.062 62.9974C348.891 64.35 345.509 65.0263 341.918 65.0263C338.28 65.0263 334.875 64.35 331.703 62.9974C328.531 61.6448 325.733 59.7791 323.307 57.4003C320.929 54.9749 319.063 52.1764 317.71 49.0047C316.358 45.8331 315.681 42.4282 315.681 38.7901ZM326.176 38.7901C326.176 41.0756 326.572 43.2211 327.365 45.2267C328.205 47.1857 329.348 48.9348 330.794 50.474C332.286 51.9665 333.989 53.1326 335.901 53.9721C337.86 54.8117 339.982 55.2315 342.267 55.2315C344.46 55.2315 346.489 54.8117 348.354 53.9721C350.267 53.1326 351.922 51.9665 353.322 50.474C354.721 48.9348 355.817 47.1857 356.61 45.2267C357.403 43.2211 357.799 41.0756 357.799 38.7901C357.799 36.458 357.38 34.2892 356.54 32.2836C355.747 30.278 354.628 28.5289 353.182 27.0363C351.782 25.4971 350.127 24.3078 348.214 23.4682C346.302 22.6287 344.226 22.2089 341.988 22.2089C339.749 22.2089 337.673 22.6287 335.761 23.4682C333.849 24.3078 332.169 25.4971 330.724 27.0363C329.278 28.5289 328.158 30.278 327.365 32.2836C326.572 34.2892 326.176 36.458 326.176 38.7901Z" fill="#010101"/>
</svg>
